<?xml version="1.0" encoding="UTF-8"?>
<!DOCTYPE svg PUBLIC "-//W3C//DTD SVG 1.1//EN" "http://www.w3.org/Graphics/SVG/1.1/DTD/svg11.dtd">
<svg xmlns="http://www.w3.org/2000/svg" version="1.1" width="300px" height="300px" style="shape-rendering:geometricPrecision; text-rendering:geometricPrecision; image-rendering:optimizeQuality; fill-rule:evenodd; clip-rule:evenodd" xmlns:xlink="http://www.w3.org/1999/xlink">
<g><path style="opacity:0.988" fill="#fdfdfd" d="M 132.5,-0.5 C 143.833,-0.5 155.167,-0.5 166.5,-0.5C 229.089,9.22474 271.256,43.8914 293,103.5C 295.635,112.862 297.802,122.195 299.5,131.5C 299.5,143.167 299.5,154.833 299.5,166.5C 286.155,241.845 241.821,286.179 166.5,299.5C 155.167,299.5 143.833,299.5 132.5,299.5C 57.1667,286.167 12.8333,241.833 -0.5,166.5C -0.5,155.167 -0.5,143.833 -0.5,132.5C 9.6913,70.3198 44.358,28.1531 103.5,6C 113.195,3.32272 122.862,1.15605 132.5,-0.5 Z"/></g>
<g><path style="opacity:1" fill="#d03a30" d="M 152.5,51.5 C 159.322,53.4092 164.989,57.0758 169.5,62.5C 163.622,59.0671 157.955,55.4004 152.5,51.5 Z"/></g>
<g><path style="opacity:1" fill="#f7160b" d="M 152.5,51.5 C 157.955,55.4004 163.622,59.0671 169.5,62.5C 172.243,64.2393 174.243,66.5726 175.5,69.5C 177.21,76.099 178.877,82.7657 180.5,89.5C 181.086,89.2907 181.586,88.9574 182,88.5C 182.862,90.087 183.529,91.7536 184,93.5C 183.839,100.837 183.339,108.171 182.5,115.5C 181.188,120.791 178.855,125.458 175.5,129.5C 173.926,129.063 172.759,128.063 172,126.5C 171.667,127.167 171.333,127.833 171,128.5C 166.702,127.676 164.702,125.009 165,120.5C 163.693,119.228 162.193,118.228 160.5,117.5C 157.779,112.422 155.612,107.089 154,101.5C 153.148,100.429 152.315,99.4293 151.5,98.5C 150.594,94.7987 148.594,91.7987 145.5,89.5C 143.709,86.3808 141.042,84.3808 137.5,83.5C 134.932,82.3569 132.265,82.5236 129.5,84C 128.663,85.0113 128.33,86.1779 128.5,87.5C 126.585,87.2155 124.919,87.5489 123.5,88.5C 122.833,88.8333 122.167,89.1667 121.5,89.5C 121.158,88.6618 120.492,88.3284 119.5,88.5C 115.486,88.3345 111.486,88.5012 107.5,89C 105.52,90.8252 103.187,91.6585 100.5,91.5C 100.919,94.3245 99.9193,96.4912 97.5,98C 98.8101,101.989 98.3101,105.823 96,109.5C 94.647,108.315 93.4803,106.981 92.5,105.5C 90.9547,104.548 89.288,104.215 87.5,104.5C 86.8953,102.974 85.7286,101.974 84,101.5C 83.8325,96.8275 84.1658,92.1609 85,87.5C 85.3333,88.1667 85.6667,88.8333 86,89.5C 86.3333,86.1667 86.6667,82.8333 87,79.5C 88.9028,77.559 89.7361,75.2257 89.5,72.5C 91.5054,70.666 93.6721,68.9993 96,67.5C 96.4828,66.552 96.6495,65.552 96.5,64.5C 97.8734,64.6567 99.2068,64.49 100.5,64C 103.497,60.1542 107.164,57.3209 111.5,55.5C 111.5,54.5 111.5,53.5 111.5,52.5C 125.009,46.2665 138.676,45.9332 152.5,51.5 Z"/></g>
<g><path style="opacity:1" fill="#e42822" d="M 111.5,52.5 C 111.5,53.5 111.5,54.5 111.5,55.5C 107.164,57.3209 103.497,60.1542 100.5,64C 99.2068,64.49 97.8734,64.6567 96.5,64.5C 96.6495,65.552 96.4828,66.552 96,67.5C 93.6721,68.9993 91.5054,70.666 89.5,72.5C 94.6097,63.3905 101.943,56.7238 111.5,52.5 Z"/></g>
<g><path style="opacity:1" fill="#dc2425" d="M 137.5,83.5 C 141.042,84.3808 143.709,86.3808 145.5,89.5C 144.37,93.4472 143.37,93.2805 142.5,89C 140.866,88.5065 139.199,88.3398 137.5,88.5C 137.5,86.8333 137.5,85.1667 137.5,83.5 Z"/></g>
<g><path style="opacity:1" fill="#fdd9ca" d="M 137.5,83.5 C 137.5,85.1667 137.5,86.8333 137.5,88.5C 136.341,87.5442 135.174,86.5442 134,85.5C 130.607,87.1911 127.107,88.5244 123.5,89.5C 123.5,89.1667 123.5,88.8333 123.5,88.5C 124.919,87.5489 126.585,87.2155 128.5,87.5C 128.33,86.1779 128.663,85.0113 129.5,84C 132.265,82.5236 134.932,82.3569 137.5,83.5 Z"/></g>
<g><path style="opacity:1" fill="#e32a22" d="M 175.5,69.5 C 180.501,75.1737 183.668,81.8404 185,89.5C 186.191,98.5109 185.357,107.178 182.5,115.5C 183.339,108.171 183.839,100.837 184,93.5C 183.529,91.7536 182.862,90.087 182,88.5C 181.586,88.9574 181.086,89.2907 180.5,89.5C 178.877,82.7657 177.21,76.099 175.5,69.5 Z"/></g>
<g><path style="opacity:1" fill="#c0595c" d="M 123.5,88.5 C 123.5,88.8333 123.5,89.1667 123.5,89.5C 122.251,97.3475 121.585,97.3475 121.5,89.5C 122.167,89.1667 122.833,88.8333 123.5,88.5 Z"/></g>
<g><path style="opacity:1" fill="#dc322b" d="M 89.5,72.5 C 89.7361,75.2257 88.9028,77.559 87,79.5C 86.6667,82.8333 86.3333,86.1667 86,89.5C 85.6667,88.8333 85.3333,88.1667 85,87.5C 84.1658,92.1609 83.8325,96.8275 84,101.5C 85.7286,101.974 86.8953,102.974 87.5,104.5C 82.4379,104.595 80.4379,102.095 81.5,97C 81.9323,92.1025 82.7657,87.2692 84,82.5C 85.0859,78.6536 86.9193,75.3203 89.5,72.5 Z"/></g>
<g><path style="opacity:1" fill="#dd2c23" d="M 119.5,88.5 C 114.781,90.1268 109.781,91.6268 104.5,93C 101.01,98.7668 98.3433,104.933 96.5,111.5C 93.743,108.73 90.743,106.396 87.5,104.5C 89.288,104.215 90.9547,104.548 92.5,105.5C 93.4803,106.981 94.647,108.315 96,109.5C 98.3101,105.823 98.8101,101.989 97.5,98C 99.9193,96.4912 100.919,94.3245 100.5,91.5C 103.187,91.6585 105.52,90.8252 107.5,89C 111.486,88.5012 115.486,88.3345 119.5,88.5 Z"/></g>
<g><path style="opacity:1" fill="#606060" d="M 84.5,113.5 C 86.0739,115.102 86.7406,117.102 86.5,119.5C 84.1946,117.92 83.528,115.92 84.5,113.5 Z"/></g>
<g><path style="opacity:1" fill="#d62b21" d="M 151.5,98.5 C 152.315,99.4293 153.148,100.429 154,101.5C 155.612,107.089 157.779,112.422 160.5,117.5C 162.193,118.228 163.693,119.228 165,120.5C 164.702,125.009 166.702,127.676 171,128.5C 171.333,127.833 171.667,127.167 172,126.5C 172.759,128.063 173.926,129.063 175.5,129.5C 174.5,130.833 173.5,132.167 172.5,133.5C 170.37,131.873 168.37,130.04 166.5,128C 165.552,127.517 164.552,127.351 163.5,127.5C 163.657,126.127 163.49,124.793 163,123.5C 156.656,116.322 152.822,107.989 151.5,98.5 Z"/></g>
<g><path style="opacity:1" fill="#0c0c0c" d="M 134.5,139.5 C 127.042,140.558 119.708,140.558 112.5,139.5C 109.1,153.041 106.434,166.708 104.5,180.5C 97.4805,194.674 86.4805,199.174 71.5,194C 69.0038,192.669 67.0038,190.836 65.5,188.5C 59.034,178.578 61.034,170.744 71.5,165C 74.7413,164.207 77.7413,164.707 80.5,166.5C 82.9284,170.404 84.2618,174.737 84.5,179.5C 83.0229,181.639 82.0229,183.972 81.5,186.5C 87.8735,186.627 92.7068,183.96 96,178.5C 99.7401,165.773 101.907,152.773 102.5,139.5C 103.788,137.965 103.788,136.299 102.5,134.5C 98.4319,131.479 94.4319,128.479 90.5,125.5C 88.7745,123.772 87.4411,121.772 86.5,119.5C 86.7406,117.102 86.0739,115.102 84.5,113.5C 80.8494,107.337 82.1828,105.504 88.5,108C 93.4775,112.646 98.1442,117.646 102.5,123C 108.221,126.527 114.221,129.527 120.5,132C 126.196,132.257 131.863,132.757 137.5,133.5C 138.167,133.833 138.833,134.167 139.5,134.5C 138.675,135.386 137.675,135.719 136.5,135.5C 136.843,137.483 136.176,138.817 134.5,139.5 Z"/></g>
<g><path style="opacity:1" fill="#d2e1d1" d="M 90.5,125.5 C 94.4319,128.479 98.4319,131.479 102.5,134.5C 103.788,136.299 103.788,137.965 102.5,139.5C 102.649,138.448 102.483,137.448 102,136.5C 101.578,138.426 100.411,139.426 98.5,139.5C 99.6664,137.834 99.6664,136.167 98.5,134.5C 95.5,132.5 92.5,130.5 89.5,128.5C 88.4793,129.901 87.4793,131.235 86.5,132.5C 86.5,130.833 86.5,129.167 86.5,127.5C 88.4832,127.843 89.8166,127.176 90.5,125.5 Z"/></g>
<g><path style="opacity:1" fill="#1d511e" d="M 98.5,139.5 C 95.4152,143.246 92.7485,147.246 90.5,151.5C 87.3648,154.808 84.3648,158.308 81.5,162C 64.8209,161.013 57.3209,168.846 59,185.5C 55.7397,188.54 52.2397,191.206 48.5,193.5C 48.8923,191.821 49.3923,190.154 50,188.5C 50.3333,189.167 50.6667,189.833 51,190.5C 52.3587,188.308 54.1921,186.641 56.5,185.5C 59.0401,170.581 56.5401,169.581 49,182.5C 48.6667,182.167 48.3333,181.833 48,181.5C 43.8937,182.415 40.2271,184.081 37,186.5C 31.8572,187.203 26.6905,187.703 21.5,188C 17.8577,193.938 19.5243,197.938 26.5,200C 29.146,200.497 31.8127,200.664 34.5,200.5C 27.7883,203.047 22.2883,201.38 18,195.5C 16.8175,191.726 17.6508,188.559 20.5,186C 29.6237,186.526 38.2904,184.526 46.5,180C 57.6961,171.303 67.6961,161.47 76.5,150.5C 80.2343,144.755 83.5677,138.755 86.5,132.5C 87.4793,131.235 88.4793,129.901 89.5,128.5C 92.5,130.5 95.5,132.5 98.5,134.5C 99.6664,136.167 99.6664,137.834 98.5,139.5 Z"/></g>
<g><path style="opacity:1" fill="#f7f8f7" d="M 102.5,139.5 C 101.907,152.773 99.7401,165.773 96,178.5C 92.7068,183.96 87.8735,186.627 81.5,186.5C 82.0229,183.972 83.0229,181.639 84.5,179.5C 84.2618,174.737 82.9284,170.404 80.5,166.5C 81.6883,165.636 82.8549,164.636 84,163.5C 86.2673,159.51 88.434,155.51 90.5,151.5C 92.7485,147.246 95.4152,143.246 98.5,139.5C 100.411,139.426 101.578,138.426 102,136.5C 102.483,137.448 102.649,138.448 102.5,139.5 Z"/></g>
<g><path style="opacity:1" fill="#f3f3f3" d="M 134.5,139.5 C 135.167,140.167 135.833,140.833 136.5,141.5C 127.75,140.458 121.25,143.792 117,151.5C 115.328,157.658 117.162,162.491 122.5,166C 129.263,169.715 136.263,172.882 143.5,175.5C 145.969,178.674 146.136,182.007 144,185.5C 138.964,188.848 133.464,190.348 127.5,190C 125.187,189.359 123.52,188.026 122.5,186C 123.56,183.749 124.393,181.582 125,179.5C 121.955,177.018 118.455,175.352 114.5,174.5C 110.409,175.601 108.742,178.267 109.5,182.5C 108.778,182.082 108.278,181.416 108,180.5C 107.577,181.956 106.744,182.456 105.5,182C 106.84,179.821 106.507,179.321 104.5,180.5C 106.434,166.708 109.1,153.041 112.5,139.5C 119.708,140.558 127.042,140.558 134.5,139.5 Z"/></g>
<g><path style="opacity:1" fill="#0f5711" d="M 76.5,150.5 C 78.3032,149.954 79.9698,149.12 81.5,148C 81.1667,147.667 80.8333,147.333 80.5,147C 82.3145,143.858 84.4812,141.025 87,138.5C 88.0181,140.898 89.1847,143.231 90.5,145.5C 87.8835,151.8 83.2169,155.133 76.5,155.5C 76.5,153.833 76.5,152.167 76.5,150.5 Z"/></g>
<g><path style="opacity:1" fill="#e4f2e4" d="M 90.5,151.5 C 88.434,155.51 86.2673,159.51 84,163.5C 82.8549,164.636 81.6883,165.636 80.5,166.5C 77.7413,164.707 74.7413,164.207 71.5,165C 61.034,170.744 59.034,178.578 65.5,188.5C 62.7549,187.984 60.2549,187.984 58,188.5C 56.848,190.649 55.348,192.482 53.5,194C 55.8912,194.691 55.8912,195.691 53.5,197C 49.6066,197.465 45.9399,198.631 42.5,200.5C 41.5832,199.873 40.5832,199.539 39.5,199.5C 42.4771,197.533 45.4771,195.533 48.5,193.5C 52.2397,191.206 55.7397,188.54 59,185.5C 57.3209,168.846 64.8209,161.013 81.5,162C 84.3648,158.308 87.3648,154.808 90.5,151.5 Z"/></g>
<g><path style="opacity:1" fill="#185419" d="M 163.5,127.5 C 164.552,127.351 165.552,127.517 166.5,128C 168.37,130.04 170.37,131.873 172.5,133.5C 174.055,136.94 175.888,140.273 178,143.5C 179.129,145.141 180.629,146.141 182.5,146.5C 187.194,151.86 192.194,156.86 197.5,161.5C 197.414,162.496 197.748,163.329 198.5,164C 203.919,165.575 206.919,169.075 207.5,174.5C 206.5,174.833 205.833,175.5 205.5,176.5C 203.407,175.955 201.407,175.122 199.5,174C 194.789,169.62 189.789,165.62 184.5,162C 172.101,150.586 159.935,139.086 148,127.5C 147.719,125.095 148.385,125.095 150,127.5C 150.219,126.062 150.719,124.729 151.5,123.5C 156.256,125.791 160.089,129.125 163,133.5C 163.495,131.527 163.662,129.527 163.5,127.5 Z"/></g>
<g><path style="opacity:1" fill="#e9f8eb" d="M 182.5,146.5 C 183.93,146.421 185.264,146.754 186.5,147.5C 188.52,151.019 191.52,153.186 195.5,154C 197.326,158.493 200.493,161.659 205,163.5C 205.333,163.167 205.667,162.833 206,162.5C 210.846,166.35 216.013,169.85 221.5,173C 220.584,173.278 219.918,173.778 219.5,174.5C 211.865,170.682 204.531,166.349 197.5,161.5C 192.194,156.86 187.194,151.86 182.5,146.5 Z"/></g>
<g><path style="opacity:1" fill="#0b0b0b" d="M 136.5,141.5 C 142.775,143.396 145.775,147.396 145.5,153.5C 145.167,154.167 144.833,154.833 144.5,155.5C 140.436,154.548 136.436,153.715 132.5,153C 129.552,156.927 130.218,160.261 134.5,163C 141.738,166.2 148.571,170.033 155,174.5C 158.366,184.415 155.199,191.248 145.5,195C 131.932,200.233 120.432,197.399 111,186.5C 110.209,185.255 109.709,183.922 109.5,182.5C 108.742,178.267 110.409,175.601 114.5,174.5C 118.455,175.352 121.955,177.018 125,179.5C 124.393,181.582 123.56,183.749 122.5,186C 123.52,188.026 125.187,189.359 127.5,190C 133.464,190.348 138.964,188.848 144,185.5C 146.136,182.007 145.969,178.674 143.5,175.5C 136.263,172.882 129.263,169.715 122.5,166C 117.162,162.491 115.328,157.658 117,151.5C 121.25,143.792 127.75,140.458 136.5,141.5 Z"/></g>
<g><path style="opacity:1" fill="#262626" d="M 181.5,177.5 C 184.898,177.18 188.232,177.513 191.5,178.5C 188.398,180.183 185.064,180.849 181.5,180.5C 181.5,179.5 181.5,178.5 181.5,177.5 Z"/></g>
<g><path style="opacity:1" fill="#1d1d1d" d="M 211.5,179.5 C 208.64,183.355 205.64,187.188 202.5,191C 200.167,192.167 197.833,193.333 195.5,194.5C 195.167,194.167 194.833,193.833 194.5,193.5C 199.167,190.833 202.833,187.167 205.5,182.5C 203.021,181.327 200.521,181.327 198,182.5C 196.72,182.387 195.887,181.72 195.5,180.5C 198.616,179.602 201.782,178.936 205,178.5C 206.376,178.316 207.209,177.649 207.5,176.5C 211.415,174.765 212.748,175.765 211.5,179.5 Z"/></g>
<g><path style="opacity:1" fill="#191919" d="M 186.5,181.5 C 188.527,181.338 190.527,181.505 192.5,182C 192.957,182.414 193.291,182.914 193.5,183.5C 190.685,188.983 186.352,192.649 180.5,194.5C 180.167,194.167 179.833,193.833 179.5,193.5C 183.471,191.358 186.805,188.524 189.5,185C 185.83,184.721 182.163,184.888 178.5,185.5C 178.5,184.5 178.5,183.5 178.5,182.5C 181.385,182.806 184.052,182.473 186.5,181.5 Z"/></g>
<g><path style="opacity:1" fill="#edfaee" d="M 219.5,174.5 C 226.243,175.708 232.91,177.208 239.5,179C 241.301,179.317 241.634,179.984 240.5,181C 244.071,181.52 247.571,182.353 251,183.5C 261.515,181.393 272.015,181.226 282.5,183C 284.646,183.479 285.646,184.812 285.5,187C 285.01,189.503 283.677,191.503 281.5,193C 283.797,194.16 283.464,195.16 280.5,196C 280.833,196.333 281.167,196.667 281.5,197C 279.35,198.411 277.016,199.245 274.5,199.5C 274.649,200.552 274.483,201.552 274,202.5C 272.494,204.174 270.661,205.174 268.5,205.5C 268.944,203.887 269.944,202.72 271.5,202C 270.944,201.617 270.611,201.117 270.5,200.5C 274.832,196.994 278.832,193.16 282.5,189C 281.91,187.491 281.244,185.991 280.5,184.5C 268.544,184.065 256.544,183.899 244.5,184C 235.671,181.91 227.338,178.743 219.5,174.5 Z"/></g>
<g><path style="opacity:1" fill="#135415" d="M 48.5,193.5 C 45.4771,195.533 42.4771,197.533 39.5,199.5C 37.8828,200.038 36.2161,200.371 34.5,200.5C 31.8127,200.664 29.146,200.497 26.5,200C 19.5243,197.938 17.8577,193.938 21.5,188C 26.6905,187.703 31.8572,187.203 37,186.5C 40.2271,184.081 43.8937,182.415 48,181.5C 48.3333,181.833 48.6667,182.167 49,182.5C 56.5401,169.581 59.0401,170.581 56.5,185.5C 54.1921,186.641 52.3587,188.308 51,190.5C 50.6667,189.833 50.3333,189.167 50,188.5C 49.3923,190.154 48.8923,191.821 48.5,193.5 Z"/></g>
<g><path style="opacity:1" fill="#145516" d="M 270.5,200.5 C 270.611,201.117 270.944,201.617 271.5,202C 269.944,202.72 268.944,203.887 268.5,205.5C 265.887,206.435 263.221,206.602 260.5,206C 252.822,203.159 245.155,200.326 237.5,197.5C 236.167,196.5 234.833,195.5 233.5,194.5C 231.763,192.45 229.763,190.617 227.5,189C 223.679,187.839 220.179,186.006 217,183.5C 216.503,181.19 216.337,178.857 216.5,176.5C 221.067,178.3 225.734,179.8 230.5,181C 231.614,182.57 232.947,183.903 234.5,185C 249.491,186.694 264.491,186.861 279.5,185.5C 279.799,187.604 279.466,189.604 278.5,191.5C 277.575,192.641 276.741,192.641 276,191.5C 273.293,194.573 269.793,196.24 265.5,196.5C 267.772,197.134 269.439,198.468 270.5,200.5 Z"/></g>
<g><path style="opacity:1" fill="#e7f7e8" d="M 233.5,194.5 C 234.833,195.5 236.167,196.5 237.5,197.5C 233.103,197.569 229.103,196.402 225.5,194C 225.833,193.667 226.167,193.333 226.5,193C 220.23,191.535 214.896,188.535 210.5,184C 211.148,182.56 211.481,181.06 211.5,179.5C 212.748,175.765 211.415,174.765 207.5,176.5C 206.833,176.5 206.167,176.5 205.5,176.5C 205.833,175.5 206.5,174.833 207.5,174.5C 209.936,172.983 212.102,173.316 214,175.5C 214.212,178.332 214.379,180.998 214.5,183.5C 220.092,188.42 226.425,192.087 233.5,194.5 Z"/></g>
<g><path style="opacity:1" fill="#181818" d="M 167.5,177.5 C 168.5,177.5 169.5,177.5 170.5,177.5C 170.5,178.5 170.5,179.5 170.5,180.5C 172.167,180.5 173.833,180.5 175.5,180.5C 173.312,187.027 168.978,191.693 162.5,194.5C 162.167,194.167 161.833,193.833 161.5,193.5C 165.456,191.212 168.789,188.212 171.5,184.5C 170.667,184.167 169.833,183.833 169,183.5C 160.188,189.016 159.521,188.016 167,180.5C 167.483,179.552 167.649,178.552 167.5,177.5 Z"/></g>
<g><path style="opacity:1" fill="#225123" d="M 197.5,161.5 C 204.531,166.349 211.865,170.682 219.5,174.5C 227.338,178.743 235.671,181.91 244.5,184C 256.544,183.899 268.544,184.065 280.5,184.5C 281.244,185.991 281.91,187.491 282.5,189C 278.832,193.16 274.832,196.994 270.5,200.5C 269.439,198.468 267.772,197.134 265.5,196.5C 269.793,196.24 273.293,194.573 276,191.5C 276.741,192.641 277.575,192.641 278.5,191.5C 279.466,189.604 279.799,187.604 279.5,185.5C 264.491,186.861 249.491,186.694 234.5,185C 232.947,183.903 231.614,182.57 230.5,181C 225.734,179.8 221.067,178.3 216.5,176.5C 216.337,178.857 216.503,181.19 217,183.5C 220.179,186.006 223.679,187.839 227.5,189C 229.763,190.617 231.763,192.45 233.5,194.5C 226.425,192.087 220.092,188.42 214.5,183.5C 214.379,180.998 214.212,178.332 214,175.5C 212.102,173.316 209.936,172.983 207.5,174.5C 206.919,169.075 203.919,165.575 198.5,164C 197.748,163.329 197.414,162.496 197.5,161.5 Z"/></g>
<g><path style="opacity:1" fill="#c94b43" d="M 215.5,213.5 C 213.938,213.267 212.605,212.6 211.5,211.5C 211.38,208.795 212.38,208.128 214.5,209.5C 215.429,210.689 215.762,212.022 215.5,213.5 Z"/></g>
<g><path style="opacity:1" fill="#ef9190" d="M 39.5,212.5 C 44.3054,211.513 49.3054,211.179 54.5,211.5C 54.7678,213.099 54.4345,214.432 53.5,215.5C 53.5,214.5 53.5,213.5 53.5,212.5C 48.8333,212.5 44.1667,212.5 39.5,212.5 Z"/></g>
<g><path style="opacity:1" fill="#ca3435" d="M 207.5,209.5 C 209.062,209.733 210.395,210.4 211.5,211.5C 211.157,213.225 210.157,213.725 208.5,213C 207.663,211.989 207.33,210.822 207.5,209.5 Z"/></g>
<g><path style="opacity:1" fill="#d03a3b" d="M 97.5,229.5 C 95.2869,230.605 93.1203,230.605 91,229.5C 89.4948,221.174 92.6614,215.507 100.5,212.5C 114.802,210.24 118.802,215.74 112.5,229C 108.803,231.739 104.803,232.905 100.5,232.5C 100.709,231.914 101.043,231.414 101.5,231C 110.009,229.82 113.509,224.986 112,216.5C 110.152,213.959 107.652,212.959 104.5,213.5C 104.66,215.199 104.494,216.866 104,218.5C 102.29,222.5 100.123,226.167 97.5,229.5 Z"/></g>
<g><path style="opacity:1" fill="#d53633" d="M 261.5,219.5 C 262.203,217.284 263.536,215.451 265.5,214C 261.219,213.202 257.219,213.702 253.5,215.5C 249.091,216.101 247.758,214.434 249.5,210.5C 256.155,211.533 262.822,211.7 269.5,211C 270.517,212.049 270.684,213.216 270,214.5C 267.494,216.863 264.661,218.53 261.5,219.5 Z"/></g>
<g><path style="opacity:1" fill="#fcdbc5" d="M 261.5,219.5 C 261.167,219.5 260.833,219.5 260.5,219.5C 260.306,217.088 258.973,216.088 256.5,216.5C 255.791,215.596 254.791,215.263 253.5,215.5C 257.219,213.702 261.219,213.202 265.5,214C 263.536,215.451 262.203,217.284 261.5,219.5 Z"/></g>
<g><path style="opacity:1" fill="#d83836" d="M 79.5,215.5 C 78.8333,216.167 78.1667,216.833 77.5,217.5C 78.6011,222.273 81.2678,225.94 85.5,228.5C 84.277,229.614 82.9437,229.781 81.5,229C 79.7888,226.411 77.9555,223.911 76,221.5C 75.7266,223.101 75.2266,224.601 74.5,226C 79.5945,227.458 79.2611,228.291 73.5,228.5C 72.8333,235.167 72.1667,235.167 71.5,228.5C 71.5,227.833 71.5,227.167 71.5,226.5C 72.2485,225.469 72.9152,224.302 73.5,223C 72.4232,222.53 71.4232,222.697 70.5,223.5C 69.8333,223.5 69.5,223.167 69.5,222.5C 70.6138,221.115 71.6138,219.615 72.5,218C 60.8208,216.819 61.1541,215.819 73.5,215C 74.4061,213.301 74.7394,211.467 74.5,209.5C 75.5,209.5 76.5,209.5 77.5,209.5C 77.6427,211.262 77.3094,212.929 76.5,214.5C 77.325,215.386 78.325,215.719 79.5,215.5 Z"/></g>
<g><path style="opacity:1" fill="#e65368" d="M 77.5,217.5 C 78.1667,216.833 78.8333,216.167 79.5,215.5C 81.861,215.326 84.1944,214.993 86.5,214.5C 86.5,215.5 86.5,216.5 86.5,217.5C 83.5,217.5 80.5,217.5 77.5,217.5 Z"/></g>
<g><path style="opacity:1" fill="#d82629" d="M 143.5,214.5 C 143.833,214.5 144.167,214.5 144.5,214.5C 146.604,214.201 148.604,214.534 150.5,215.5C 148.369,216.169 146.369,216.835 144.5,217.5C 143.756,220.36 143.089,223.36 142.5,226.5C 145.428,227.484 148.428,227.817 151.5,227.5C 149.952,228.794 147.952,229.461 145.5,229.5C 143.048,229.461 141.048,228.794 139.5,227.5C 140.294,224.198 140.96,220.865 141.5,217.5C 139.5,217.5 137.5,217.5 135.5,217.5C 137.857,215.902 140.523,214.902 143.5,214.5 Z"/></g>
<g><path style="opacity:1" fill="#fde6da" d="M 100.5,214.5 C 101.124,214.917 101.457,215.584 101.5,216.5C 100.611,219.279 99.4445,221.945 98,224.5C 96.8904,226.037 95.3904,226.703 93.5,226.5C 93.3402,221.004 95.6735,217.004 100.5,214.5 Z"/></g>
<g><path style="opacity:1" fill="#fdf0ec" d="M 97.5,229.5 C 100.123,226.167 102.29,222.5 104,218.5C 104.494,216.866 104.66,215.199 104.5,213.5C 107.652,212.959 110.152,213.959 112,216.5C 113.509,224.986 110.009,229.82 101.5,231C 101.043,231.414 100.709,231.914 100.5,232.5C 104.803,232.905 108.803,231.739 112.5,229C 118.802,215.74 114.802,210.24 100.5,212.5C 101.984,210.603 103.818,208.936 106,207.5C 107.826,209.074 109.993,209.907 112.5,210C 113.931,210.465 115.097,211.299 116,212.5C 116.667,217.167 116.667,221.833 116,226.5C 114.606,230.021 112.273,232.687 109,234.5C 108.228,234.355 107.561,234.022 107,233.5C 104.699,234.867 102.199,235.534 99.5,235.5C 99.7475,233.142 99.0808,231.142 97.5,229.5 Z"/></g>
<g><path style="opacity:1" fill="#fcf3ed" d="M 200.5,213.5 C 204.003,214.429 206.336,213.095 207.5,209.5C 207.33,210.822 207.663,211.989 208.5,213C 210.157,213.725 211.157,213.225 211.5,211.5C 212.605,212.6 213.938,213.267 215.5,213.5C 220.957,212.541 226.624,212.541 232.5,213.5C 229.038,214.482 225.371,214.815 221.5,214.5C 221.285,216.179 221.952,217.179 223.5,217.5C 225.167,217.5 226.833,217.5 228.5,217.5C 231.518,217.665 234.518,217.498 237.5,217C 238.684,215.855 238.684,214.688 237.5,213.5C 239.256,214.552 239.923,216.219 239.5,218.5C 232.877,219.38 226.211,219.713 219.5,219.5C 219.66,217.801 219.494,216.134 219,214.5C 217.444,216.635 215.611,216.968 213.5,215.5C 209.394,218.429 205.394,221.596 201.5,225C 197.419,227.402 193.419,229.069 189.5,230C 189.759,231.261 190.426,232.261 191.5,233C 193.189,232.866 194.856,232.366 196.5,231.5C 196.196,232.15 195.863,232.817 195.5,233.5C 197.074,234.984 198.407,236.651 199.5,238.5C 199,238.833 198.5,239.167 198,239.5C 194.811,237.24 191.477,235.24 188,233.5C 187.135,229.36 186.968,225.36 187.5,221.5C 185.234,221.141 183.401,221.808 182,223.5C 181.329,222.748 180.496,222.414 179.5,222.5C 180.793,220.704 182.293,219.037 184,217.5C 184.667,216.5 184.667,215.5 184,214.5C 177.347,222.55 169.18,227.55 159.5,229.5C 159.548,226.365 161.215,224.698 164.5,224.5C 162.046,223.397 159.713,223.73 157.5,225.5C 155.853,224.722 154.52,223.556 153.5,222C 155.481,221.395 155.815,220.395 154.5,219C 151.771,218.805 148.937,218.972 146,219.5C 144.97,219.164 144.47,218.497 144.5,217.5C 146.857,217.663 149.19,217.497 151.5,217C 152.615,214.106 151.448,212.939 148,213.5C 146.615,213.514 145.449,213.848 144.5,214.5C 144.167,214.5 143.833,214.5 143.5,214.5C 140.421,214.74 137.421,214.407 134.5,213.5C 133.191,215.24 133.524,216.573 135.5,217.5C 137.5,217.5 139.5,217.5 141.5,217.5C 140.96,220.865 140.294,224.198 139.5,227.5C 135.833,227.5 132.167,227.5 128.5,227.5C 128.478,223.528 128.478,219.528 128.5,215.5C 128.977,214.522 129.643,213.689 130.5,213C 135.357,212.693 140.19,212.193 145,211.5C 150.043,212.504 155.043,213.504 160,214.5C 160.624,212.246 161.957,210.579 164,209.5C 166.166,211.121 168.666,211.955 171.5,212C 174.739,218.154 177.405,217.987 179.5,211.5C 177.842,207.251 178.676,206.584 182,209.5C 180.988,212.341 182.155,213.674 185.5,213.5C 185.373,215.915 185.207,218.249 185,220.5C 186.079,218.606 187.413,218.273 189,219.5C 189.933,215.8 191.766,212.634 194.5,210C 197.879,208.976 199.879,210.143 200.5,213.5 Z"/></g>
<g><path style="opacity:1" fill="#c83434" d="M 190.5,217.5 C 194.192,217.324 196.192,218.991 196.5,222.5C 193.288,222.288 191.288,220.621 190.5,217.5 Z"/></g>
<g><path style="opacity:1" fill="#d3373e" d="M 162.5,213.5 C 164.846,212.317 167.179,212.65 169.5,214.5C 170.429,215.689 170.762,217.022 170.5,218.5C 169.448,218.649 168.448,218.483 167.5,218C 165.963,216.293 164.296,214.793 162.5,213.5 Z"/></g>
<g><path style="opacity:1" fill="#d75b52" d="M 232.5,213.5 C 234.167,213.5 235.833,213.5 237.5,213.5C 238.684,214.688 238.684,215.855 237.5,217C 234.518,217.498 231.518,217.665 228.5,217.5C 230.292,216.691 232.292,216.191 234.5,216C 230.5,215.333 226.5,215.333 222.5,216C 223.056,216.383 223.389,216.883 223.5,217.5C 221.952,217.179 221.285,216.179 221.5,214.5C 225.371,214.815 229.038,214.482 232.5,213.5 Z"/></g>
<g><path style="opacity:1" fill="#cc171d" d="M 228.5,217.5 C 226.833,217.5 225.167,217.5 223.5,217.5C 223.389,216.883 223.056,216.383 222.5,216C 226.5,215.333 230.5,215.333 234.5,216C 232.292,216.191 230.292,216.691 228.5,217.5 Z"/></g>
<g><path style="opacity:1" fill="#cb6753" d="M 143.5,214.5 C 140.523,214.902 137.857,215.902 135.5,217.5C 133.524,216.573 133.191,215.24 134.5,213.5C 137.421,214.407 140.421,214.74 143.5,214.5 Z"/></g>
<g><path style="opacity:1" fill="#e17674" d="M 144.5,214.5 C 145.449,213.848 146.615,213.514 148,213.5C 151.448,212.939 152.615,214.106 151.5,217C 149.19,217.497 146.857,217.663 144.5,217.5C 146.369,216.835 148.369,216.169 150.5,215.5C 148.604,214.534 146.604,214.201 144.5,214.5 Z"/></g>
<g><path style="opacity:1" fill="#c84138" d="M 200.5,213.5 C 200.5,214.5 200.5,215.5 200.5,216.5C 197.728,216.405 195.728,215.071 194.5,212.5C 196.757,211.23 198.757,211.564 200.5,213.5 Z"/></g>
<g><path style="opacity:1" fill="#be403e" d="M 69.5,222.5 C 69.5,223.167 69.8333,223.5 70.5,223.5C 68.871,225.196 69.2043,226.196 71.5,226.5C 71.5,227.167 71.5,227.833 71.5,228.5C 69.5328,228.739 67.6995,228.406 66,227.5C 64.5114,229.332 62.678,230.165 60.5,230C 63.5309,227.492 66.5309,224.992 69.5,222.5 Z"/></g>
<g><path style="opacity:1" fill="#ffcfb8" d="M 71.5,226.5 C 69.2043,226.196 68.871,225.196 70.5,223.5C 71.4232,222.697 72.4232,222.53 73.5,223C 72.9152,224.302 72.2485,225.469 71.5,226.5 Z"/></g>
<g><path style="opacity:1" fill="#ce3a32" d="M 179.5,222.5 C 174.622,226.086 169.622,229.586 164.5,233C 161.632,233.64 159.965,232.473 159.5,229.5C 169.18,227.55 177.347,222.55 184,214.5C 184.667,215.5 184.667,216.5 184,217.5C 182.293,219.037 180.793,220.704 179.5,222.5 Z"/></g>
<g><path style="opacity:1" fill="#cd383b" d="M 256.5,216.5 C 258.973,216.088 260.306,217.088 260.5,219.5C 257.918,225.296 253.918,229.962 248.5,233.5C 247.479,232.998 247.312,232.332 248,231.5C 253.111,227.356 255.944,222.356 256.5,216.5 Z"/></g>
<g><path style="opacity:1" fill="#ca3d41" d="M 39.5,212.5 C 44.1667,212.5 48.8333,212.5 53.5,212.5C 53.5,213.5 53.5,214.5 53.5,215.5C 52.5006,220.829 51.5006,226.163 50.5,231.5C 46.7544,230.425 42.7544,230.425 38.5,231.5C 38.1667,229.833 37.8333,228.167 37.5,226.5C 38.3805,221.86 39.0471,217.194 39.5,212.5 Z"/></g>
<g><path style="opacity:1" fill="#feece2" d="M 39.5,222.5 C 42.8333,222.5 46.1667,222.5 49.5,222.5C 49.7394,224.467 49.4061,226.301 48.5,228C 45.5184,228.498 42.5184,228.665 39.5,228.5C 39.5,226.5 39.5,224.5 39.5,222.5 Z"/></g>
<g><path style="opacity:1" fill="#fcddd5" d="M 42.5,213.5 C 45.5719,213.183 48.5719,213.516 51.5,214.5C 50.6518,216.409 50.3184,218.409 50.5,220.5C 47.5,220.5 44.5,220.5 41.5,220.5C 41.298,218.05 41.6314,215.717 42.5,213.5 Z"/></g>
<g><path style="opacity:1" fill="#cf3a35" d="M 213.5,215.5 C 212.182,219.332 209.848,222.499 206.5,225C 202.991,227.03 199.658,229.196 196.5,231.5C 194.856,232.366 193.189,232.866 191.5,233C 190.426,232.261 189.759,231.261 189.5,230C 193.419,229.069 197.419,227.402 201.5,225C 205.394,221.596 209.394,218.429 213.5,215.5 Z"/></g>
<g><path style="opacity:1" fill="#d32b1e" d="M 220.5,230.5 C 217.466,230.817 216.466,229.817 217.5,227.5C 224.849,227.451 232.183,227.118 239.5,226.5C 239.5,227.5 239.5,228.5 239.5,229.5C 233.122,229.295 226.789,229.628 220.5,230.5 Z"/></g>
<g><path style="opacity:1" fill="#c94b45" d="M 128.5,227.5 C 132.167,227.5 135.833,227.5 139.5,227.5C 141.048,228.794 143.048,229.461 145.5,229.5C 147.952,229.461 149.952,228.794 151.5,227.5C 153.048,227.821 153.715,228.821 153.5,230.5C 145.956,230.216 138.456,230.55 131,231.5C 128.98,230.968 128.147,229.635 128.5,227.5 Z"/></g>
<g><path style="opacity:1" fill="#e78385" d="M 217.5,227.5 C 216.466,229.817 217.466,230.817 220.5,230.5C 216.286,232.287 214.952,230.953 216.5,226.5C 217.107,226.624 217.44,226.957 217.5,227.5 Z"/></g>
</svg>
